<svg width="24" height="24" viewBox="0 0 24 24" fill="none" xmlns="http://www.w3.org/2000/svg">
  <path d="M12 2C13.1 2 14 2.9 14 4C14 5.1 13.1 6 12 6C10.9 6 10 5.1 10 4C10 2.9 10.9 2 12 2Z" fill="#dd3333"/>
  <path d="M21 9V7L15 6L13 7H11L9 6L3 7V9H21Z" fill="#dd3333"/>
  <path d="M3 10V20C3 21.1 3.9 22 5 22H19C20.1 22 21 21.1 21 20V10H3ZM8 19H6V17H8V19ZM8 16H6V14H8V16ZM11 19H9V17H11V19ZM11 16H9V14H11V16ZM15 19H13V17H15V19ZM15 16H13V14H15V16ZM18 19H16V17H18V19ZM18 16H16V14H18V16Z" fill="#dd3333"/>
</svg>
